<?xml version="1.0" encoding="utf-8"?>
<!-- Generator: Adobe Illustrator 16.0.2, SVG Export Plug-In . SVG Version: 6.00 Build 0)  -->
<!DOCTYPE svg PUBLIC "-//W3C//DTD SVG 1.1//EN" "http://www.w3.org/Graphics/SVG/1.1/DTD/svg11.dtd">
<svg version="1.1" id="Слой_1" xmlns="http://www.w3.org/2000/svg" xmlns:xlink="http://www.w3.org/1999/xlink" x="0px" y="0px"
	 width="96px" height="96px" viewBox="0 0 96 96" enable-background="new 0 0 96 96" xml:space="preserve">
<rect fill="none" width="96" height="96"/>
<g opacity="0.5">
	<path d="M88,48c0,29.635-10.359,40-39.998,40C18.364,88,8,77.635,8,48C8.001,18.364,18.366,8,48.003,8C77.641,8,88,18.364,88,48z"
		/>
</g>
<g>
	
		<linearGradient id="SVGID_1_" gradientUnits="userSpaceOnUse" x1="1314.6777" y1="2304.9658" x2="1314.7607" y2="2225.8848" gradientTransform="matrix(1 0 0 1 -1266.7188 -2217.8809)">
		<stop  offset="0" style="stop-color:#506927"/>
		<stop  offset="1" style="stop-color:#94C147"/>
	</linearGradient>
	<path fill="url(#SVGID_1_)" d="M87.5,47.5C87.5,77.135,77.271,87,48.002,87C18.735,87,8.5,77.135,8.5,47.5S18.737,8,48.003,8
		C77.271,8,87.5,17.865,87.5,47.5z"/>
</g>
<linearGradient id="SVGID_2_" gradientUnits="userSpaceOnUse" x1="4361.8945" y1="-7427.3169" x2="4361.8945" y2="-7349.0659" gradientTransform="matrix(1 0 0 -1 -4313.8945 -7340.5654)">
	<stop  offset="0" style="stop-color:#000000;stop-opacity:0.4"/>
	<stop  offset="1" style="stop-color:#FFFFFF"/>
</linearGradient>
<path opacity="0.4" fill="url(#SVGID_2_)" enable-background="new    " d="M47.997,8C18.734,8,8.5,17.864,8.5,47.499
	C8.5,77.139,18.733,87,47.997,87C77.262,87,87.5,77.136,87.5,47.499C87.5,17.864,77.262,8,47.997,8z M47.999,86
	C19.215,86,9.5,76.654,9.5,47.495C9.5,18.338,19.215,9,47.999,9C76.779,9,86.5,18.339,86.5,47.496C86.5,76.654,76.777,86,47.999,86z
	"/>
<path opacity="0.1" enable-background="new    " d="M56.503,20c-11.051,0-20.002,8.954-20.002,20
	c0,11.048,8.952,20.003,20.002,20.003c11.045,0,19.996-8.955,19.996-20.003C76.499,28.953,67.548,20,56.503,20z"/>
<path opacity="0.15" enable-background="new    " d="M56.502,38.051c-1.861,0-2.727,1.381-2.727,2.725
	c0,0.902,0.494,2.144,1.136,2.428v2.962h3.103v-2.962c0.856-0.38,1.215-1.431,1.215-2.428
	C59.229,39.434,58.365,38.051,56.502,38.051z M56.503,20.3C45.728,20.3,37,29.029,37,39.799c0,10.771,8.728,19.503,19.502,19.503
	c10.77,0,19.496-8.731,19.496-19.503C75.999,29.029,67.271,20.3,56.503,20.3z M63.299,45.222c0,0.841-0.208,1.531-1.046,1.531
	H51.234c-0.84,0-1.528-0.495-1.528-1.337v-7.087c0-0.627,0.04-1.141,0.879-1.141h1.072v-4.53c0-2.089,1.829-3.044,3.708-3.044h2.666
	c1.876,0,3.296,0.874,3.296,2.962v0.539h-0.563v-0.539c0-1.522-0.992-2.586-2.732-2.586h-3.346c-1.481,0-2.539,1.405-2.539,2.667
	v4.53h10.27c0.836,0,0.884,0.297,0.884,1.141L63.299,45.222L63.299,45.222z"/>
<path opacity="0.25" enable-background="new    " d="M56.502,38.278c-1.313,0-2.374,1.061-2.374,2.372c0,0.88,0.481,1.9,1.106,2.177
	v2.888h2.459v-2.888c0.832-0.371,1.184-1.207,1.184-2.177C58.876,39.337,57.813,38.278,56.502,38.278z M56.503,20.5
	C46.005,20.5,37.5,29.005,37.5,39.499c0,10.497,8.504,19.004,19.002,19.004c10.492,0,18.996-8.506,18.996-19.004
	C75.499,29.005,66.995,20.5,56.503,20.5z M63.602,45.552c0,0.821-0.674,1.494-1.49,1.494H50.895c-0.819,0-1.492-0.672-1.492-1.494
	v-7.48c0-0.61,0.039-1.492,0.857-1.492h1.143v-4.036c0-2.038,1.781-3.443,3.613-3.443h2.979c1.827,0,3.685,1.326,3.685,3.363v0.917
	h-1.209v-0.917c0-1.231-1.031-2.236-2.476-2.236h-2.979c-1.445,0-2.477,1.086-2.477,2.316v4.036H62.74
	c0.816,0,0.861,0.669,0.861,1.492V45.552L63.602,45.552z"/>
<linearGradient id="SVGID_3_" gradientUnits="userSpaceOnUse" x1="411.6992" y1="802.1855" x2="411.6992" y2="766.1836" gradientTransform="matrix(1 0 0 1 -355.1992 -744.9805)">
	<stop  offset="0" style="stop-color:#D0CBC5"/>
	<stop  offset="1" style="stop-color:#ECEBE5"/>
</linearGradient>
<path fill="url(#SVGID_3_)" d="M56.502,38.684c-0.979,0-1.77,0.79-1.77,1.767c0,0.725,0.438,1.347,1.061,1.624v2.622h1.418v-2.622
	c0.623-0.277,1.061-0.898,1.061-1.624C58.27,39.474,57.48,38.684,56.502,38.684z M56.503,21.202
	c-9.946,0-18.002,8.057-18.002,17.998c0,9.944,8.057,18.005,18.002,18.005c9.94,0,17.996-8.061,17.996-18.005
	C74.499,29.258,66.443,21.202,56.503,21.202z M64.283,46.114c0,0.776-0.639,1.415-1.415,1.415H50.131
	c-0.779,0-1.415-0.638-1.415-1.415v-9.197c0-0.779,0.636-1.416,1.415-1.416h0.71v-2.928c0-2.333,1.915-4.243,4.249-4.243h2.825
	c2.331,0,4.246,1.91,4.246,4.243v1.02h-2.122v-1.02c0-1.168-0.953-2.122-2.125-2.122H55.09c-1.173,0-2.128,0.953-2.128,2.122v2.928
	h9.904c0.774,0,1.415,0.635,1.415,1.416v9.197H64.283z"/>
<linearGradient id="SVGID_4_" gradientUnits="userSpaceOnUse" x1="411.6992" y1="802.1855" x2="411.6992" y2="766.1836" gradientTransform="matrix(1 0 0 1 -355.1992 -744.9805)">
	<stop  offset="0" style="stop-color:#FFFFFF;stop-opacity:0"/>
	<stop  offset="1" style="stop-color:#FFFFFF"/>
</linearGradient>
<path fill="url(#SVGID_4_)" d="M56.503,21.202c-9.946,0-18.002,8.057-18.002,17.998c0,9.944,8.057,18.005,18.002,18.005
	c9.94,0,17.996-8.061,17.996-18.005C74.499,29.258,66.443,21.202,56.503,21.202z M56.503,56.204C47.11,56.204,39.5,48.596,39.5,39.2
	c0-9.389,7.609-16.999,17.002-16.999c9.387,0,16.996,7.61,16.996,16.999C73.499,48.596,65.891,56.204,56.503,56.204z"/>
<path fill="#FFFFFF" d="M62.928,35.296h-9.695V32.99c0-1.824,1.725-1.678,1.725-1.678h3.08c1.541,0,1.663,1.297,1.663,1.297v1.873
	h2.7V32.65c-0.022-2.408-1.969-4.54-4.607-4.54h-2.311c-4.664,0.041-4.865,4.256-4.865,4.256l-0.04,2.931h-0.453
	c-1.628,0.013-1.706,1.493-1.706,1.493s-0.008,7.483,0,9.435c0.008,1.952,1.706,1.949,1.706,1.949s11.358,0,12.817,0
	c1.461,0,1.64-1.905,1.64-1.905s0-7.742,0-9.322C64.581,36.1,63.962,35.342,62.928,35.296z M64.283,46.114
	c0,0.776-0.639,1.415-1.415,1.415H50.131c-0.779,0-1.415-0.638-1.415-1.415v-9.197c0-0.779,0.636-1.416,1.415-1.416h0.71v-2.928
	c0-2.333,1.915-4.243,4.249-4.243h2.825c2.331,0,4.246,1.91,4.246,4.243v1.02h-2.122v-1.02c0-1.168-0.953-2.122-2.125-2.122H55.09
	c-1.173,0-2.128,0.953-2.128,2.122v2.928h9.904c0.774,0,1.415,0.635,1.415,1.416v9.197H64.283z"/>
<path fill="#FFFFFF" d="M56.502,39.171c0.878,0,1.6,0.638,1.739,1.476c0.007-0.066,0.028-0.127,0.028-0.196
	c0-0.977-0.791-1.767-1.769-1.767s-1.771,0.79-1.771,1.767c0,0.068,0.022,0.13,0.029,0.196
	C54.898,39.81,55.624,39.171,56.502,39.171z"/>
<path opacity="0.15" enable-background="new    " d="M49.275,50.115h-0.555v-3.502c0-3.438-3.005-6.253-6.445-6.253h-4.165
	c-3.438,0-6.438,2.814-6.438,6.253v3.502h-0.55c-1.141,0-2.424,0.938-2.424,2.084v12.625c0,2.346,0.861,3.361,2.424,3.361h18.152
	c1.563,0,2.426-1.017,2.426-3.361V52.199C51.699,51.055,50.416,50.115,49.275,50.115z M36.696,47.767
	c0-1.42,0.619-2.158,2.042-2.158h2.916c1.422,0,2.043,0.738,2.043,2.158v1.915h-7v-1.669L36.696,47.767L36.696,47.767z"/>
<linearGradient id="SVGID_5_" gradientUnits="userSpaceOnUse" x1="48.3511" y1="57.2051" x2="48.3511" y2="21.2504">
	<stop  offset="0" style="stop-color:#000000;stop-opacity:0.3"/>
	<stop  offset="1" style="stop-color:#000000;stop-opacity:0"/>
</linearGradient>
<path fill="url(#SVGID_5_)" d="M56.503,57.205c0.529,0,1.051-0.034,1.568-0.079c0.079-0.685,0.13-1.377,0.13-2.083
	c0-2.686-0.604-5.225-1.659-7.514h-6.411c-0.779,0-1.415-0.638-1.415-1.415v-6.929c-2.537-1.365-5.437-2.143-8.52-2.143
	c-0.529,0-1.049,0.034-1.566,0.079c-0.078,0.683-0.129,1.374-0.129,2.078C38.501,49.145,46.558,57.205,56.503,57.205z"/>
<path opacity="0.1" enable-background="new    " d="M40.196,34.801c-11.599,0-20.998,9.4-20.998,21.001
	c0,11.599,9.399,20.996,20.998,20.996c11.604,0,21.005-9.397,21.005-20.996C61.201,44.202,51.801,34.801,40.196,34.801z
	 M40.196,72.697c-9.331,0-16.896-7.564-16.896-16.896c0-9.331,7.565-16.897,16.896-16.897c9.337,0,16.904,7.565,16.904,16.897
	S49.533,72.697,40.196,72.697z"/>
<path opacity="0.15" enable-background="new    " d="M48.883,50.203h-0.53v-3.35c0-3.291-2.873-5.983-6.166-5.983h-3.983
	c-3.29,0-6.16,2.692-6.16,5.983v3.35h-0.526c-1.092,0-2.319,0.898-2.319,1.996V64.26c0,2.244,0.825,3.217,2.318,3.217h17.367
	c1.496,0,2.322-0.973,2.322-3.217V52.199C51.201,51.104,49.973,50.203,48.883,50.203z M36.134,47.981
	c0-1.647,0.718-2.504,2.369-2.504h3.384c1.651,0,2.371,0.856,2.371,2.504v2.222h-8.125v-1.937L36.134,47.981L36.134,47.981z"/>
<path opacity="0.15" enable-background="new    " d="M40.196,35.095c-11.321,0-20.497,9.177-20.497,20.5
	c0,11.319,9.176,20.495,20.497,20.495c11.33,0,20.505-9.176,20.505-20.495C60.701,44.273,51.525,35.095,40.196,35.095z
	 M40.196,72.836c-9.521,0-17.241-7.721-17.241-17.242c0-9.521,7.72-17.242,17.241-17.242c9.529,0,17.25,7.721,17.25,17.242
	C57.445,65.115,49.725,72.836,40.196,72.836z"/>
<path opacity="0.25" enable-background="new    " d="M48.509,50.348h-0.615v-3.726c0-2.969-2.93-5.396-5.898-5.396h-3.597
	c-2.97,0-5.899,2.428-5.899,5.396v3.726h-0.61c-0.987,0-2.093,0.81-2.093,1.801v12.185c0,1.168,0.944,2.479,2.3,2.479h16.204
	c1.357,0,2.301-1.313,2.301-2.479V52.148C50.602,51.154,49.496,50.348,48.509,50.348z M36.196,47.371
	c0-1.412,0.874-2.147,2.29-2.147h3.421c1.416,0,2.289,0.735,2.289,2.147v2.848h-8V47.371L36.196,47.371z M40.805,58.709v3.338h-1.22
	v-3.338c-0.794-0.352-1.202-0.803-1.202-1.332c0-0.854,0.569-1.811,1.813-1.811c1.244,0,1.813,0.955,1.813,1.811
	C42.008,57.906,41.596,58.357,40.805,58.709z"/>
<path opacity="0.25" enable-background="new    " d="M40.196,35.388c-11.045,0-19.997,8.953-19.997,20
	c0,11.045,8.952,19.997,19.997,19.997c11.052,0,20.005-8.952,20.005-19.997C60.201,44.341,51.248,35.388,40.196,35.388z
	 M40.196,72.975c-9.713,0-17.586-7.875-17.586-17.588c0-9.712,7.873-17.585,17.586-17.585c9.72,0,17.593,7.874,17.593,17.585
	C57.789,65.1,49.916,72.975,40.196,72.975z"/>
<linearGradient id="SVGID_6_" gradientUnits="userSpaceOnUse" x1="395.3984" y1="819.0215" x2="395.3984" y2="781.0234" gradientTransform="matrix(1 0 0 1 -355.1992 -744.9805)">
	<stop  offset="0" style="stop-color:#D0CBC5"/>
	<stop  offset="1" style="stop-color:#ECEBE5"/>
</linearGradient>
<path fill="url(#SVGID_6_)" d="M40.196,36.043c-10.493,0-18.998,8.505-18.998,19c0,10.492,8.505,18.998,18.998,18.998
	c10.5,0,19.005-8.506,19.005-18.998C59.201,44.549,50.695,36.043,40.196,36.043z M40.196,73.041
	c-9.939,0-17.997-8.059-17.997-17.998c0-9.941,8.058-17.999,17.997-17.999c9.945,0,18.005,8.058,18.005,17.999
	C58.201,64.982,50.141,73.041,40.196,73.041z M47.97,50.738h-0.867v-3.575c0-2.848-2.333-5.178-5.181-5.178h-3.451
	c-2.848,0-5.18,2.33-5.18,5.178v3.575h-0.865c-0.948,0-1.727,0.775-1.727,1.729v11.223c0,0.949,0.778,1.726,1.727,1.726H47.97
	c0.952,0,1.731-0.774,1.731-1.726V52.467C49.701,51.514,48.922,50.738,47.97,50.738z M41.061,58.76v3.203h-1.73V58.76
	c-0.76-0.336-1.292-1.096-1.292-1.979c0-1.191,0.966-2.156,2.158-2.156c1.193,0,2.16,0.963,2.16,2.156
	C42.355,57.664,41.821,58.424,41.061,58.76z M44.514,50.738h-8.635v-3.575c0-1.426,1.161-2.588,2.591-2.588h3.451
	c1.428,0,2.592,1.162,2.592,2.588L44.514,50.738L44.514,50.738z"/>
<linearGradient id="SVGID_7_" gradientUnits="userSpaceOnUse" x1="572.999" y1="-1023.0112" x2="572.999" y2="-985.0137" gradientTransform="matrix(1 0 0 -1 -532.7988 -948.9707)">
	<stop  offset="0" style="stop-color:#FFFFFF;stop-opacity:0"/>
	<stop  offset="1" style="stop-color:#FFFFFF"/>
</linearGradient>
<path fill="url(#SVGID_7_)" d="M40.196,36.043c-10.493,0-18.998,8.505-18.998,19c0,10.492,8.505,18.998,18.998,18.998
	c10.5,0,19.005-8.506,19.005-18.998C59.201,44.549,50.695,36.043,40.196,36.043z M40.196,73.791
	c-10.354,0-18.748-8.395-18.748-18.748c0-10.355,8.394-18.75,18.748-18.75c10.359,0,18.755,8.395,18.755,18.75
	C58.951,65.398,50.555,73.791,40.196,73.791z"/>
<linearGradient id="SVGID_8_" gradientUnits="userSpaceOnUse" x1="572.999" y1="-1022.2612" x2="572.999" y2="-985.7646" gradientTransform="matrix(1 0 0 -1 -532.7988 -948.9707)">
	<stop  offset="0" style="stop-color:#FFFFFF"/>
	<stop  offset="1" style="stop-color:#FFFFFF;stop-opacity:0"/>
</linearGradient>
<path fill="url(#SVGID_8_)" d="M40.196,36.794c-10.079,0-18.248,8.169-18.248,18.249c0,10.078,8.169,18.248,18.248,18.248
	c10.085,0,18.255-8.17,18.255-18.248C58.451,44.963,50.281,36.794,40.196,36.794z M40.196,73.041
	c-9.939,0-17.997-8.059-17.997-17.998c0-9.941,8.058-18,17.997-18c9.945,0,18.005,8.059,18.005,18
	C58.201,64.982,50.141,73.041,40.196,73.041z"/>
<path fill="#FFFFFF" d="M39.334,62.766h1.723v-0.838h-1.723V62.766z M41.056,58.742v0.84c0.757-0.338,1.285-1.092,1.285-1.971
	c0-0.164-0.022-0.316-0.056-0.471C42.162,57.857,41.703,58.457,41.056,58.742z M47.067,47.108c0-2.833-2.323-5.149-5.154-5.149
	H38.48c-2.834,0-5.155,2.316-5.155,5.149v0.837c0-2.833,2.321-5.149,5.155-5.149h3.433c2.831,0,5.154,2.316,5.154,5.149V47.108z
	 M30.699,52.439v0.838c0-0.946,0.781-1.719,1.728-1.719h0.863v-0.838h-0.863C31.48,50.723,30.699,51.495,30.699,52.439z
	 M39.334,58.742c-0.645-0.285-1.102-0.885-1.229-1.602c-0.034,0.153-0.057,0.307-0.057,0.471c0,0.879,0.532,1.633,1.286,1.971
	V58.742z M35.881,51.561h8.631v-0.838h-8.631V51.561z M47.969,50.723h-0.866v0.838h0.866c0.951,0,1.73,0.772,1.73,1.719v-0.84
	C49.699,51.493,48.92,50.723,47.969,50.723z"/>
</svg>
